<svg xmlns="http://www.w3.org/2000/svg" viewBox="0 0 1280 320" role="img" aria-labelledby="title desc">
  <title id="title">Keepalived</title><desc id="desc">Direcciones IPv4 flotantes y failover para servicios</desc>
  <defs><linearGradient id="bg" x1="0" y1="0" x2="1" y2="1"><stop stop-color="#071015"/><stop offset="1" stop-color="#221837"/></linearGradient><pattern id="grid" width="32" height="32" patternUnits="userSpaceOnUse"><path d="M32 0H0v32" fill="none" stroke="#8b5cf6" stroke-opacity=".08"/></pattern></defs>
  <rect width="1280" height="320" rx="28" fill="url(#bg)"/><rect width="1280" height="320" rx="28" fill="url(#grid)"/>
  <g transform="translate(70 48)"><rect width="224" height="224" rx="52" fill="#0d1721" stroke="#8b5cf6" stroke-width="4"/><circle cx="112" cy="58" r="25" fill="#071015" stroke="#12cddd" stroke-width="8"/><circle cx="61" cy="157" r="25" fill="#071015" stroke="#8b5cf6" stroke-width="8"/><circle cx="163" cy="157" r="25" fill="#071015" stroke="#8b5cf6" stroke-width="8"/><path d="m100 80-28 54m52-54 28 54M86 157h52" stroke="#62778a" stroke-width="7" stroke-linecap="round"/><rect x="87" y="99" width="50" height="27" rx="13" fill="#ffcf5a"/><text x="112" y="118" text-anchor="middle" font-family="monospace" font-size="15" font-weight="700" fill="#071015">VIP</text><path d="M60 80c32-31 92-33 124 2" fill="none" stroke="#55df9a" stroke-width="8" stroke-linecap="round"/><path d="m171 68 15 15-20 7" fill="none" stroke="#55df9a" stroke-width="7" stroke-linecap="round"/></g>
  <text x="350" y="132" font-family="ui-monospace,SFMono-Regular,Consolas,monospace" font-size="68" font-weight="800" letter-spacing="4" fill="#eafaff">KEEPALIVED</text>
  <text x="354" y="185" font-family="ui-monospace,SFMono-Regular,Consolas,monospace" font-size="22" font-weight="700" letter-spacing="1.5" fill="#a78bfa">VRRP · DIRECCIONES FLOTANTES · SALUD · FAILOVER</text>
  <text x="354" y="232" font-family="Inter,Segoe UI,sans-serif" font-size="23" fill="#93afbd">Una dirección estable para un servicio que puede moverse.</text>
  <path d="M354 259h720" stroke="#12cddd" stroke-width="4" stroke-linecap="round"/><circle cx="1097" cy="259" r="8" fill="#12cddd"/>
</svg>
